<svg viewBox="0 0 74 66" fill="none" xmlns="http://www.w3.org/2000/svg">
<path d="M29.6833 10.5457C38.2656 8.71226 43.6929 15.597 43.6929 15.597M43.6929 15.597L43.7297 13.5608M43.6929 15.597L41.5657 15.1688" stroke="#4D4D4D" stroke-width="0.555291"/>
<path d="M47.2866 42.8696C45.7046 49.0866 39.4342 50.4095 39.4342 50.4095M39.4342 50.4095L40.7562 51.094M39.4342 50.4095L40.4046 49.1548" stroke="#4D4D4D" stroke-width="0.555291"/>
<path d="M39.8381 36.4551C40.634 34.6642 40.1697 23.77 39.8381 18.5468C51.4039 17.8835 74.237 16.7808 73.0431 17.6762C71.8492 18.5716 72.5457 30.5685 73.0431 36.4551C61.6431 37.2013 39.0422 38.2459 39.8381 36.4551Z" fill="white" stroke="#4D4D4D" stroke-width="0.416468"/>
<path d="M47.2866 24.281V30.3201H50.5537C50.562 28.3071 50.5735 24.2414 50.5537 24.083C50.529 23.8849 50.1082 23.2909 49.8607 22.9939C49.6627 22.7563 49.6132 21.9709 49.6132 21.6079H48.3014C48.2519 21.9049 48.1281 22.5979 48.0291 22.9939C47.9301 23.3899 47.4929 24.017 47.2866 24.281Z" fill="#E76F51"/>
<path d="M48.3014 21.6079C48.2519 21.9049 48.1281 22.5979 48.0291 22.9939C47.9301 23.3899 47.4929 24.017 47.2866 24.281V30.3201H50.5537C50.562 28.3071 50.5735 24.2414 50.5537 24.083C50.529 23.8849 50.1082 23.2909 49.8607 22.9939C49.6627 22.7563 49.6132 21.9709 49.6132 21.6079M48.3014 21.6079H49.6132M48.3014 21.6079C48.3014 21.6079 48.0352 21.6079 47.8646 21.6079M49.6132 21.6079H50.0314" stroke="#4D4D4D" stroke-width="0.416468" stroke-linecap="round" stroke-linejoin="round"/>
<path d="M44.1477 26.8842C44.2107 27.92 45.9615 28.9501 46.829 29.3357C46.9391 29.3082 47.083 29.2642 47.241 29.2046C47.6878 29.036 48.2469 28.7425 48.4694 28.3424C48.8458 27.6654 48.2924 26.3515 48.045 25.7345C47.8472 25.2408 47.4208 25.2311 47.2324 25.2879C47.2051 24.9904 47.0832 24.2727 46.8141 23.7823C46.5449 23.292 46.0102 23.4728 45.7765 23.6244C45.529 23.028 44.8494 21.9034 44.1112 22.1768C43.3729 22.4502 43.8028 23.6234 44.11 24.1759C44.0366 24.0763 43.8028 23.9903 43.4549 24.4433C43.107 24.8964 44.0022 25.9052 44.4933 26.3529C44.375 26.2966 44.1403 26.324 44.1477 26.8842Z" fill="#2A9D8F"/>
<path d="M47.241 29.2046C47.6878 29.036 48.2469 28.7425 48.4694 28.3424C48.8458 27.6654 48.2924 26.3515 48.045 25.7345C47.8472 25.2408 47.4208 25.2311 47.2324 25.2879C47.2051 24.9904 47.0832 24.2727 46.8141 23.7823C46.5449 23.292 46.0102 23.4728 45.7765 23.6244C45.529 23.028 44.8494 21.9034 44.1112 22.1768C43.3729 22.4502 43.8028 23.6234 44.11 24.1759C44.0366 24.0763 43.8028 23.9903 43.4549 24.4433C43.107 24.8964 44.0022 25.9052 44.4933 26.3529C44.375 26.2966 44.1403 26.324 44.1477 26.8842C44.2107 27.92 45.9615 28.9501 46.829 29.3357C46.9391 29.3082 47.083 29.2642 47.241 29.2046ZM47.241 29.2046L46.7335 28.0056M44.9734 23.8473L45.757 25.6986M45.9752 26.2141L45.757 25.6986M45.9752 26.2141L46.7335 28.0056M45.9752 26.2141L46.1475 25.2879L46.3197 24.3617M45.757 25.6986L44.4955 24.9679M46.7335 28.0056L45.3341 26.9939" stroke="#4D4D4D" stroke-width="0.416468" stroke-linecap="round" stroke-linejoin="round"/>
<path d="M53.1999 26.4563C53.9066 24.3181 55.0489 19.908 53.9646 19.3737C53.4498 19.12 52.782 20.2737 52.1428 21.8681C51.8811 22.521 51.6242 23.2478 51.3845 23.9821C51.2545 24.3803 51.1296 24.7807 51.0117 25.1728C50.8392 25.7466 50.6818 26.3026 50.5458 26.8074C50.4832 27.0396 50.4251 27.261 50.3722 27.4684L52.181 29.3614L53.1999 26.4563Z" fill="#E9C46A"/>
<path d="M52.1428 21.8681C52.782 20.2737 53.4498 19.12 53.9646 19.3737C55.0489 19.908 53.9066 24.3181 53.1999 26.4563L52.181 29.3614L50.3722 27.4684C50.4251 27.261 50.4832 27.0396 50.5458 26.8074M52.1428 21.8681C52.1841 21.7659 53.6575 21.3914 53.348 22.1167C53.1004 22.6969 51.9358 23.602 51.3845 23.9821M52.1428 21.8681C51.8811 22.521 51.6242 23.2478 51.3845 23.9821M51.3845 23.9821C51.2545 24.3803 51.1296 24.7807 51.0117 25.1728M51.0117 25.1728C51.49 25.0067 52.366 24.8231 52.044 25.4175C51.722 26.0119 50.911 26.5918 50.5458 26.8074M51.0117 25.1728C50.8392 25.7466 50.6818 26.3026 50.5458 26.8074" stroke="#4D4D4D" stroke-width="0.416468"/>
<path d="M45.6168 27.8015L44.573 27.1802L45.145 30.4207L44.9297 33.2921L44.573 35.2599H52.6964L52.1377 30.7392L52.6964 27.1802L51.6295 27.8015L50.623 27.0252L49.6164 27.8015L48.6099 27.0252L47.6034 27.8015L46.6371 27.0252L45.6168 27.8015Z" fill="#E3D39C" stroke="#4D4D4D" stroke-width="0.416468" stroke-linejoin="round"/>
<path d="M54.3351 30.0766C54.2201 30.0766 54.1269 30.1698 54.1269 30.2848C54.1269 30.3998 54.2201 30.4931 54.3351 30.4931V30.0766ZM57.3835 30.0766H54.3351V30.4931H57.3835V30.0766Z" fill="#4D4D4D"/>
<path d="M54.3351 30.9344C54.2201 30.9344 54.1269 31.0276 54.1269 31.1426C54.1269 31.2576 54.2201 31.3508 54.3351 31.3508V30.9344ZM57.3835 30.9344H54.3351V31.3508H57.3835V30.9344Z" fill="#4D4D4D"/>
<path d="M67.3896 28.9103L65.1583 27.0252L61.6959 29.4874C61.2267 29.8225 59.9445 30.818 59.5673 31.3418L61.6959 33.296C61.978 32.9754 63.1692 32.0813 63.6195 31.7571L67.3896 28.9103Z" fill="#97EC79"/>
<path d="M59.4646 31.4878C59.495 31.4434 59.5294 31.3943 59.5673 31.3418M59.5673 31.3418C59.9445 30.818 61.2267 29.8225 61.6959 29.4874L65.1583 27.0252L67.3896 28.9103L63.6195 31.7571C63.1692 32.0813 61.978 32.9754 61.6959 33.296L59.5673 31.3418Z" stroke="#4D4D4D" stroke-width="0.416468"/>
<path d="M63.9256 29.929C63.9601 29.8998 63.9911 29.8687 64.0188 29.8357C64.0472 29.8021 64.0715 29.7672 64.0918 29.731L64.3343 29.9412C64.3019 29.9854 64.2656 30.0292 64.2255 30.0728C64.1854 30.1163 64.1423 30.1577 64.0961 30.1969C64.0093 30.2706 63.9192 30.3264 63.8257 30.3643C63.7322 30.4022 63.6381 30.4199 63.5434 30.4173C63.4488 30.4134 63.3563 30.3882 63.2658 30.3417C63.1748 30.2946 63.0883 30.2228 63.0064 30.1263L62.7036 29.7698C62.6182 29.6692 62.5581 29.5685 62.5234 29.4675C62.4894 29.366 62.4783 29.2664 62.4901 29.1686C62.5019 29.0708 62.5349 28.977 62.589 28.8872C62.6425 28.7966 62.7155 28.7122 62.8078 28.6338C62.8484 28.5992 62.8914 28.5681 62.9366 28.5404C62.9819 28.5114 63.0286 28.4847 63.0768 28.4604L63.2458 28.7349C63.2102 28.7474 63.1728 28.7648 63.1338 28.7873C63.0955 28.8092 63.0601 28.8339 63.0278 28.8614C62.9768 28.9047 62.9371 28.9508 62.9088 28.9998C62.8798 29.0481 62.8638 29.099 62.8607 29.1526C62.8577 29.205 62.8686 29.2604 62.8933 29.3188C62.9181 29.3772 62.9579 29.4388 63.0129 29.5036L63.3174 29.8622C63.3713 29.9255 63.4245 29.9728 63.4771 30.0041C63.5291 30.0346 63.5803 30.0509 63.6308 30.0531C63.6807 30.0546 63.7302 30.0446 63.7795 30.0229C63.8287 30.0013 63.8774 29.97 63.9256 29.929ZM63.3107 29.1547L63.4405 29.3076L62.6097 30.0132L62.4799 29.8603L63.3107 29.1547ZM63.552 29.4389L63.6819 29.5918L62.8511 30.2974L62.7212 30.1444L63.552 29.4389Z" fill="#4D4D4D"/>
<path d="M68.7746 29.2995L66.5433 27.4144L63.0809 29.8766C62.6117 30.2117 61.3295 31.2073 60.9523 31.731L63.0809 33.6852C63.363 33.3646 64.5542 32.4706 65.0045 32.1464L68.7746 29.2995Z" fill="#97EC79"/>
<path d="M60.8496 31.8771C60.88 31.8326 60.9144 31.7836 60.9523 31.731M60.9523 31.731C61.3295 31.2073 62.6117 30.2117 63.0809 29.8766L66.5433 27.4144L68.7746 29.2995L65.0045 32.1464C64.5542 32.4706 63.363 33.3646 63.0809 33.6852L60.9523 31.731Z" stroke="#4D4D4D" stroke-width="0.416468"/>
<path d="M65.3106 30.3183C65.3451 30.289 65.3761 30.2579 65.4038 30.2249C65.4322 30.1913 65.4565 30.1564 65.4768 30.1202L65.7194 30.3304C65.6869 30.3746 65.6506 30.4184 65.6105 30.462C65.5704 30.5055 65.5273 30.5469 65.4811 30.5861C65.3944 30.6598 65.3042 30.7156 65.2107 30.7535C65.1172 30.7914 65.0231 30.8091 64.9284 30.8065C64.8338 30.8026 64.7413 30.7774 64.6509 30.731C64.5598 30.6838 64.4733 30.612 64.3914 30.5155L64.0887 30.159C64.0032 30.0584 63.9432 29.9577 63.9084 29.8568C63.8744 29.7552 63.8633 29.6556 63.8751 29.5578C63.8869 29.46 63.9199 29.3662 63.974 29.2764C64.0276 29.1858 64.1005 29.1014 64.1928 29.023C64.2334 28.9885 64.2764 28.9573 64.3216 28.9296C64.3669 28.9006 64.4136 28.8739 64.4618 28.8497L64.6308 29.1241C64.5952 29.1366 64.5578 29.154 64.5188 29.1765C64.4805 29.1984 64.4451 29.2231 64.4128 29.2506C64.3618 29.2939 64.3221 29.34 64.2938 29.389C64.2648 29.4373 64.2488 29.4882 64.2457 29.5418C64.2427 29.5942 64.2536 29.6496 64.2783 29.708C64.3031 29.7665 64.3429 29.8281 64.3979 29.8928L64.7024 30.2514C64.7563 30.3147 64.8095 30.362 64.8621 30.3933C64.9141 30.4238 64.9653 30.4402 65.0158 30.4423C65.0657 30.4438 65.1153 30.4338 65.1645 30.4121C65.2137 30.3905 65.2624 30.3592 65.3106 30.3183ZM64.6957 29.5439L64.8255 29.6968L63.9948 30.4024L63.8649 30.2495L64.6957 29.5439ZM64.937 29.8281L65.0669 29.981L64.2361 30.6866L64.1062 30.5336L64.937 29.8281Z" fill="#4D4D4D"/>
<path d="M70.3906 29.5117L68.1593 27.6267L64.6969 30.0888C64.2277 30.4239 62.9455 31.4195 62.5683 31.9432L64.6969 33.8974C64.979 33.5768 66.1702 32.6828 66.6204 32.3586L70.3906 29.5117Z" fill="#97EC79"/>
<path d="M62.4656 32.0893C62.496 32.0448 62.5304 31.9958 62.5683 31.9432M62.5683 31.9432C62.9455 31.4195 64.2277 30.4239 64.6969 30.0888L68.1593 27.6267L70.3906 29.5117L66.6204 32.3586C66.1702 32.6828 64.979 33.5768 64.6969 33.8974L62.5683 31.9432Z" stroke="#4D4D4D" stroke-width="0.416468"/>
<path d="M66.9263 30.5305C66.9608 30.5012 66.9919 30.4701 67.0196 30.4371C67.0479 30.4035 67.0723 30.3686 67.0925 30.3324L67.3351 30.5426C67.3026 30.5868 67.2663 30.6306 67.2263 30.6742C67.1862 30.7177 67.143 30.7591 67.0969 30.7983C67.0101 30.872 66.9199 30.9278 66.8264 30.9657C66.7329 31.0036 66.6388 31.0213 66.5441 31.0187C66.4496 31.0148 66.357 30.9897 66.2666 30.9432C66.1755 30.896 66.089 30.8242 66.0071 30.7277L65.7044 30.3712C65.619 30.2707 65.5589 30.1699 65.5241 30.069C65.4901 29.9675 65.479 29.8678 65.4908 29.77C65.5026 29.6722 65.5356 29.5784 65.5897 29.4886C65.6433 29.3981 65.7162 29.3136 65.8085 29.2352C65.8492 29.2007 65.8921 29.1695 65.9373 29.1418C65.9826 29.1128 66.0294 29.0862 66.0775 29.0619L66.2465 29.3363C66.2109 29.3488 66.1736 29.3663 66.1346 29.3887C66.0962 29.4106 66.0609 29.4353 66.0285 29.4628C65.9775 29.5061 65.9378 29.5522 65.9095 29.6012C65.8805 29.6495 65.8645 29.7005 65.8614 29.7541C65.8585 29.8064 65.8693 29.8618 65.8941 29.9202C65.9188 29.9787 65.9587 30.0403 66.0136 30.105L66.3182 30.4636C66.372 30.527 66.4252 30.5743 66.4778 30.6055C66.5298 30.636 66.5811 30.6524 66.6315 30.6546C66.6814 30.6561 66.731 30.646 66.7802 30.6244C66.8294 30.6027 66.8781 30.5714 66.9263 30.5305ZM66.3114 29.7561L66.4413 29.909L65.6105 30.6146L65.4806 30.4617L66.3114 29.7561ZM66.5527 30.0403L66.6826 30.1932L65.8518 30.8988L65.7219 30.7458L66.5527 30.0403Z" fill="#4D4D4D"/>
<path d="M55.0337 38.5511V37.4439H57.7301V38.5511H61.7746V39.5968H51.1311V38.5511H55.0337Z" stroke="#4D4D4D" stroke-width="0.416468"/>
<path d="M1.01685 22.5832C1.6716 20.5611 1.28966 8.26032 1.01685 2.36266C10.5312 1.61375 29.3145 0.368693 28.3324 1.37972C27.3503 2.39075 27.9232 15.9366 28.3324 22.5832C18.9544 23.4257 0.362096 24.6052 1.01685 22.5832Z" fill="white" stroke="#4D4D4D" stroke-width="0.416468"/>
<g clip-path="url(#clip0_48_9)">
<rect x="7.32015" y="4.45066" width="2.1338" height="1.95677" rx="0.666897" stroke="#4D4D4D" stroke-width="0.309249"/>
<path d="M7.91019 5.40765C7.85503 5.34246 7.75746 5.33433 7.69228 5.3895C7.62709 5.44466 7.61896 5.54222 7.67412 5.60741L7.91019 5.40765ZM8.11572 6.09919L7.98319 6.01954L8.11572 6.09919ZM7.67412 5.60741C7.73725 5.68201 7.82772 5.79907 7.89407 5.90654C7.92769 5.96098 7.95119 6.00672 7.96313 6.03985C7.96593 6.04762 7.96771 6.05367 7.96879 6.05813C7.9699 6.06267 7.97001 6.06451 7.96998 6.06402C7.96995 6.06363 7.9696 6.05912 7.97089 6.0517C7.97222 6.04403 7.97546 6.03239 7.98319 6.01954L8.24826 6.17883C8.27823 6.12896 8.28115 6.07688 8.2783 6.04012C8.27538 6.00242 8.26532 5.96624 8.25407 5.93502C8.23154 5.87248 8.19529 5.80575 8.15721 5.74407C8.08017 5.6193 7.97944 5.48948 7.91019 5.40765L7.67412 5.60741ZM7.98319 6.01954C7.9789 6.02667 7.98326 6.01868 7.99045 6.00967C7.992 6.00772 7.99596 6.00283 8.00166 5.99712C8.0046 5.99425 8.01214 5.98753 8.01679 5.98381C8.02429 5.9784 8.04583 5.9662 8.06021 5.96038C8.08697 5.95368 8.15623 5.95858 8.19457 5.97636C8.22493 6.00193 8.25733 6.05662 8.2633 6.08006C8.26923 6.11435 8.26137 6.14205 8.26134 6.14218C8.25844 6.15434 8.25457 6.16344 8.25444 6.16375C8.2534 6.16632 8.25257 6.16814 8.2523 6.16872C8.25173 6.16997 8.25417 6.16494 8.2623 6.14983C8.27669 6.1231 8.30209 6.07733 8.33594 6.01854C8.40364 5.90096 8.50364 5.73393 8.61474 5.56602C8.72668 5.39686 8.8463 5.23231 8.95321 5.11644C9.00715 5.05798 9.05233 5.01804 9.0869 4.99563C9.12713 4.96954 9.12433 4.9853 9.09688 4.9782L9.1743 4.6788C9.07199 4.65234 8.97888 4.69711 8.91867 4.73614C8.85279 4.77885 8.78739 4.84013 8.72593 4.90673C8.60206 5.04098 8.47164 5.22189 8.35684 5.39537C8.24121 5.57012 8.13779 5.74292 8.06794 5.86423C8.03303 5.92487 8.00612 5.9733 7.98999 6.00326C7.98287 6.0165 7.9755 6.03044 7.97123 6.03975C7.9705 6.04133 7.9693 6.04399 7.96799 6.04722C7.96759 6.0482 7.96355 6.05779 7.96057 6.07026C7.9605 6.07054 7.95263 6.09836 7.95857 6.13272C7.96455 6.15619 7.99696 6.2109 8.02734 6.23649C8.0657 6.25428 8.13498 6.25918 8.16178 6.25247C8.17618 6.24664 8.19776 6.23441 8.2053 6.22897C8.20999 6.22521 8.21759 6.21846 8.22059 6.21553C8.2264 6.20971 8.23049 6.20466 8.23221 6.20251C8.24068 6.19188 8.24794 6.17935 8.24826 6.17883L7.98319 6.01954Z" fill="#4D4D4D"/>
<line y1="-0.148611" x2="4.27021" y2="-0.148611" transform="matrix(-1 0 0 1 16.1753 4.71041)" stroke="#4D4D4D" stroke-width="0.297222"/>
<line y1="-0.148611" x2="4.89512" y2="-0.148611" transform="matrix(-1 0 0 1 16.3003 5.3978)" stroke="#4D4D4D" stroke-width="0.297222"/>
<line y1="-0.148611" x2="3.29119" y2="-0.148611" transform="matrix(-1 0 0 1 15.6858 6.1477)" stroke="#4D4D4D" stroke-width="0.297222"/>
<path d="M18.4187 5.3163C18.0857 5.71941 18.3762 6.70092 18.5631 7.14128C18.6131 7.16899 18.6812 7.20229 18.7599 7.23467C18.9824 7.32625 19.2893 7.41044 19.5088 7.33959C19.8802 7.21972 20.1283 6.54552 20.2494 6.2332C20.3463 5.98334 20.1926 5.83314 20.1037 5.78927C20.196 5.67029 20.3979 5.36405 20.4674 5.09091C20.5369 4.81776 20.2778 4.70045 20.1396 4.67594C20.2536 4.37115 20.3901 3.72327 20.0242 3.57005C19.6582 3.41684 19.4131 3.99678 19.3362 4.3059C19.3434 4.24396 19.2869 4.13189 19.003 4.1791C18.719 4.22631 18.7018 4.90569 18.7287 5.23948C18.7045 5.17806 18.6086 5.10744 18.4187 5.3163Z" fill="#E76F51"/>
<path d="M18.7599 7.23467C18.9824 7.32625 19.2893 7.41044 19.5088 7.33959C19.8802 7.21972 20.1283 6.54552 20.2494 6.2332C20.3463 5.98334 20.1926 5.83314 20.1037 5.78927C20.196 5.67029 20.3979 5.36405 20.4674 5.09091C20.5369 4.81776 20.2778 4.70045 20.1396 4.67594C20.2536 4.37115 20.3901 3.72327 20.0242 3.57005C19.6582 3.41684 19.4131 3.99678 19.3362 4.3059C19.3434 4.24396 19.2869 4.13189 19.003 4.1791C18.719 4.22631 18.7018 4.90569 18.7287 5.23948C18.7045 5.17806 18.6086 5.10744 18.4187 5.3163C18.0857 5.71941 18.3762 6.70092 18.5631 7.14128C18.6131 7.16899 18.6812 7.20229 18.7599 7.23467ZM18.7599 7.23467L18.9853 6.6186M19.7672 4.48178L19.4191 5.4331M19.3222 5.69802L19.4191 5.4331M19.3222 5.69802L18.9853 6.6186M19.3222 5.69802L19.7041 5.41615L20.0861 5.13428M19.4191 5.4331L19.2058 4.73015M18.9853 6.6186L18.8179 5.76471" stroke="#4D4D4D" stroke-width="0.416468" stroke-linecap="round" stroke-linejoin="round"/>
</g>
<line x1="22.5977" y1="7.90262" x2="6.80607" y2="7.90262" stroke="#4D4D4D" stroke-width="0.138823"/>
<g clip-path="url(#clip1_48_9)">
<rect x="7.32015" y="9.35495" width="2.1338" height="1.95677" rx="0.666897" stroke="#4D4D4D" stroke-width="0.309249"/>
<line y1="-0.148611" x2="4.27021" y2="-0.148611" transform="matrix(-1 0 0 1 16.1753 9.61467)" stroke="#4D4D4D" stroke-width="0.297222"/>
<line y1="-0.148611" x2="4.89512" y2="-0.148611" transform="matrix(-1 0 0 1 16.3003 10.3021)" stroke="#4D4D4D" stroke-width="0.297222"/>
<line y1="-0.148611" x2="3.29119" y2="-0.148611" transform="matrix(-1 0 0 1 15.6858 11.052)" stroke="#4D4D4D" stroke-width="0.297222"/>
<path d="M18.0969 9.5062V12.4741H19.7025C19.7066 11.4848 19.7122 9.48674 19.7025 9.40889C19.6903 9.31158 19.4836 9.01966 19.3619 8.87369C19.2646 8.75692 19.2403 8.37093 19.2403 8.19254H18.5956C18.5713 8.3385 18.5105 8.67908 18.4618 8.87369C18.4132 9.06831 18.1983 9.37645 18.0969 9.5062Z" fill="#AEE2DB"/>
<path d="M18.5956 8.19254C18.5713 8.3385 18.5105 8.67908 18.4618 8.87369C18.4132 9.06831 18.1983 9.37645 18.0969 9.5062V12.4741H19.7025C19.7066 11.4848 19.7122 9.48674 19.7025 9.40889C19.6903 9.31158 19.4836 9.01966 19.3619 8.87369C19.2646 8.75692 19.2403 8.37093 19.2403 8.19254M18.5956 8.19254H19.2403M18.5956 8.19254C18.5956 8.19254 18.4648 8.19254 18.381 8.19254M19.2403 8.19254H19.4458" stroke="#4D4D4D" stroke-width="0.416468" stroke-linecap="round" stroke-linejoin="round"/>
</g>
<line x1="22.5977" y1="12.9029" x2="6.80607" y2="12.9029" stroke="#4D4D4D" stroke-width="0.138823"/>
<g clip-path="url(#clip2_48_9)">
<rect x="7.32015" y="13.8342" width="2.1338" height="1.95677" rx="0.666897" stroke="#4D4D4D" stroke-width="0.309249"/>
<path d="M7.91019 14.7912C7.85503 14.726 7.75746 14.7179 7.69228 14.773C7.62709 14.8282 7.61896 14.9258 7.67412 14.991L7.91019 14.7912ZM8.11572 15.4827L7.98319 15.4031L8.11572 15.4827ZM7.67412 14.991C7.73725 15.0656 7.82772 15.1826 7.89407 15.2901C7.92769 15.3445 7.95119 15.3903 7.96313 15.4234C7.96593 15.4312 7.96771 15.4372 7.96879 15.4417C7.9699 15.4462 7.97001 15.4481 7.96998 15.4476C7.96995 15.4472 7.9696 15.4427 7.97089 15.4352C7.97222 15.4276 7.97546 15.4159 7.98319 15.4031L8.24826 15.5624C8.27823 15.5125 8.28115 15.4604 8.2783 15.4237C8.27538 15.386 8.26532 15.3498 8.25407 15.3186C8.23154 15.256 8.19529 15.1893 8.15721 15.1276C8.08017 15.0028 7.97944 14.873 7.91019 14.7912L7.67412 14.991ZM7.98319 15.4031C7.9789 15.4102 7.98326 15.4022 7.99045 15.3932C7.992 15.3913 7.99596 15.3864 8.00166 15.3807C8.0046 15.3778 8.01214 15.3711 8.01679 15.3674C8.02429 15.362 8.04583 15.3498 8.06021 15.3439C8.08697 15.3372 8.15623 15.3421 8.19457 15.3599C8.22493 15.3855 8.25733 15.4402 8.2633 15.4636C8.26923 15.4979 8.26137 15.5256 8.26134 15.5257C8.25844 15.5379 8.25457 15.547 8.25444 15.5473C8.2534 15.5499 8.25257 15.5517 8.2523 15.5523C8.25173 15.5535 8.25417 15.5485 8.2623 15.5334C8.27669 15.5067 8.30209 15.4609 8.33594 15.4021C8.40364 15.2845 8.50364 15.1175 8.61474 14.9496C8.72668 14.7804 8.8463 14.6159 8.95321 14.5C9.00715 14.4415 9.05233 14.4016 9.0869 14.3792C9.12713 14.3531 9.12433 14.3688 9.09688 14.3617L9.1743 14.0623C9.07199 14.0359 8.97888 14.0807 8.91867 14.1197C8.85279 14.1624 8.78739 14.2237 8.72593 14.2903C8.60206 14.4245 8.47164 14.6054 8.35684 14.7789C8.24121 14.9537 8.13779 15.1265 8.06794 15.2478C8.03303 15.3084 8.00612 15.3568 7.98999 15.3868C7.98287 15.4001 7.9755 15.414 7.97123 15.4233C7.9705 15.4249 7.9693 15.4275 7.96799 15.4308C7.96759 15.4318 7.96355 15.4413 7.96057 15.4538C7.9605 15.4541 7.95263 15.4819 7.95857 15.5163C7.96455 15.5397 7.99696 15.5945 8.02734 15.62C8.0657 15.6378 8.13498 15.6427 8.16178 15.636C8.17618 15.6302 8.19776 15.618 8.2053 15.6125C8.20999 15.6088 8.21759 15.602 8.22059 15.5991C8.2264 15.5933 8.23049 15.5882 8.23221 15.5861C8.24068 15.5754 8.24794 15.5629 8.24826 15.5624L7.98319 15.4031Z" fill="#4D4D4D"/>
<line y1="-0.148611" x2="4.27021" y2="-0.148611" transform="matrix(-1 0 0 1 16.1753 14.0939)" stroke="#4D4D4D" stroke-width="0.297222"/>
<line y1="-0.148611" x2="4.89512" y2="-0.148611" transform="matrix(-1 0 0 1 16.3003 14.7813)" stroke="#4D4D4D" stroke-width="0.297222"/>
<line y1="-0.148611" x2="3.29119" y2="-0.148611" transform="matrix(-1 0 0 1 15.6858 15.5312)" stroke="#4D4D4D" stroke-width="0.297222"/>
<path d="M20.1792 15.5458C20.8253 14.8864 22.1002 13.4114 21.3645 13.2089C21.0151 13.1127 20.4627 13.4598 19.9011 13.9481C19.6711 14.1481 19.4396 14.3717 19.2198 14.5982C19.1006 14.7211 18.9849 14.8448 18.8748 14.966C18.7136 15.1435 18.5644 15.3157 18.4338 15.4723C18.3737 15.5443 18.3175 15.613 18.266 15.6774C18.0871 15.9681 17.8973 16.5234 18.5688 16.4196C19.2403 16.3157 19.9222 15.7938 20.1792 15.5458Z" fill="#E9C46A"/>
<path d="M19.9011 13.9481C20.4627 13.4598 21.0151 13.1127 21.3645 13.2089C22.1002 13.4114 20.8253 14.8864 20.1792 15.5458C19.9222 15.7938 19.2403 16.3157 18.5688 16.4196C17.8973 16.5234 18.0871 15.9681 18.266 15.6774C18.3175 15.613 18.3737 15.5443 18.4338 15.4723M19.9011 13.9481C19.9373 13.9168 21.0107 13.8418 20.7419 14.0634C20.5269 14.2406 19.6376 14.4938 19.2198 14.5982M19.9011 13.9481C19.6711 14.1481 19.4396 14.3717 19.2198 14.5982M19.2198 14.5982C19.1006 14.7211 18.9849 14.8448 18.8748 14.966M18.8748 14.966C19.2262 14.9275 19.8619 14.8953 19.5929 15.0748C19.324 15.2544 18.7081 15.4146 18.4338 15.4723M18.8748 14.966C18.7136 15.1435 18.5644 15.3157 18.4338 15.4723" stroke="#4D4D4D" stroke-width="0.416468"/>
</g>
<line x1="22.5977" y1="16.8611" x2="6.80607" y2="16.8611" stroke="#4D4D4D" stroke-width="0.138823"/>
<g clip-path="url(#clip3_48_9)">
<rect x="7.32015" y="18.3134" width="2.1338" height="1.95677" rx="0.666897" stroke="#4D4D4D" stroke-width="0.309249"/>
<path d="M7.91019 19.2704C7.85503 19.2052 7.75746 19.1971 7.69228 19.2523C7.62709 19.3074 7.61896 19.405 7.67412 19.4702L7.91019 19.2704ZM8.11572 19.9619L7.98319 19.8823L8.11572 19.9619ZM7.67412 19.4702C7.73725 19.5448 7.82772 19.6618 7.89407 19.7693C7.92769 19.8237 7.95119 19.8695 7.96313 19.9026C7.96593 19.9104 7.96771 19.9164 7.96879 19.9209C7.9699 19.9254 7.97001 19.9273 7.96998 19.9268C7.96995 19.9264 7.9696 19.9219 7.97089 19.9144C7.97222 19.9068 7.97546 19.8951 7.98319 19.8823L8.24826 20.0416C8.27823 19.9917 8.28115 19.9396 8.2783 19.9029C8.27538 19.8652 8.26532 19.829 8.25407 19.7978C8.23154 19.7352 8.19529 19.6685 8.15721 19.6068C8.08017 19.4821 7.97944 19.3522 7.91019 19.2704L7.67412 19.4702ZM7.98319 19.8823C7.9789 19.8894 7.98326 19.8814 7.99045 19.8724C7.992 19.8705 7.99596 19.8656 8.00166 19.8599C8.0046 19.857 8.01214 19.8503 8.01679 19.8466C8.02429 19.8412 8.04583 19.829 8.06021 19.8231C8.08697 19.8164 8.15623 19.8213 8.19457 19.8391C8.22493 19.8647 8.25733 19.9194 8.2633 19.9428C8.26923 19.9771 8.26137 20.0048 8.26134 20.0049C8.25844 20.0171 8.25457 20.0262 8.25444 20.0265C8.2534 20.0291 8.25257 20.0309 8.2523 20.0315C8.25173 20.0327 8.25417 20.0277 8.2623 20.0126C8.27669 19.9859 8.30209 19.9401 8.33594 19.8813C8.40364 19.7637 8.50364 19.5967 8.61474 19.4288C8.72668 19.2596 8.8463 19.0951 8.95321 18.9792C9.00715 18.9207 9.05233 18.8808 9.0869 18.8584C9.12713 18.8323 9.12433 18.8481 9.09688 18.841L9.1743 18.5416C9.07199 18.5151 8.97888 18.5599 8.91867 18.5989C8.85279 18.6416 8.78739 18.7029 8.72593 18.7695C8.60206 18.9037 8.47164 19.0846 8.35684 19.2581C8.24121 19.4329 8.13779 19.6057 8.06794 19.727C8.03303 19.7876 8.00612 19.8361 7.98999 19.866C7.98287 19.8793 7.9755 19.8932 7.97123 19.9025C7.9705 19.9041 7.9693 19.9067 7.96799 19.91C7.96759 19.911 7.96355 19.9205 7.96057 19.933C7.9605 19.9333 7.95263 19.9611 7.95857 19.9955C7.96455 20.0189 7.99696 20.0737 8.02734 20.0992C8.0657 20.117 8.13498 20.1219 8.16178 20.1152C8.17618 20.1094 8.19776 20.0972 8.2053 20.0917C8.20999 20.088 8.21759 20.0812 8.22059 20.0783C8.2264 20.0725 8.23049 20.0674 8.23221 20.0653C8.24068 20.0546 8.24794 20.0421 8.24826 20.0416L7.98319 19.8823Z" fill="#4D4D4D"/>
<line y1="-0.148611" x2="4.27021" y2="-0.148611" transform="matrix(-1 0 0 1 16.1753 18.5732)" stroke="#4D4D4D" stroke-width="0.297222"/>
<line y1="-0.148611" x2="4.89512" y2="-0.148611" transform="matrix(-1 0 0 1 16.3003 19.2606)" stroke="#4D4D4D" stroke-width="0.297222"/>
<line y1="-0.148611" x2="3.29119" y2="-0.148611" transform="matrix(-1 0 0 1 15.6858 20.0105)" stroke="#4D4D4D" stroke-width="0.297222"/>
<path d="M18.0969 18.4647V21.4326H19.7025C19.7066 20.4433 19.7122 18.4452 19.7025 18.3674C19.6903 18.2701 19.4836 17.9781 19.3619 17.8322C19.2646 17.7154 19.2403 17.3294 19.2403 17.151H18.5956C18.5713 17.297 18.5105 17.6376 18.4618 17.8322C18.4132 18.0268 18.1983 18.3349 18.0969 18.4647Z" fill="#E76F51"/>
<path d="M18.5956 17.151C18.5713 17.297 18.5105 17.6376 18.4618 17.8322C18.4132 18.0268 18.1983 18.3349 18.0969 18.4647V21.4326H19.7025C19.7066 20.4433 19.7122 18.4452 19.7025 18.3674C19.6903 18.2701 19.4836 17.9781 19.3619 17.8322C19.2646 17.7154 19.2403 17.3294 19.2403 17.151M18.5956 17.151H19.2403M18.5956 17.151C18.5956 17.151 18.4648 17.151 18.381 17.151M19.2403 17.151H19.4458" stroke="#4D4D4D" stroke-width="0.416468" stroke-linecap="round" stroke-linejoin="round"/>
</g>
<line x1="10.3546" y1="3.38424" x2="10.3546" y2="21.4326" stroke="#4D4D4D" stroke-width="0.138823"/>
<path d="M12.9568 24.8069V23.6997H15.6532V24.8069H19.6977V25.8526H9.0542V24.8069H12.9568Z" stroke="#4D4D4D" stroke-width="0.416468"/>
<path d="M10.2852 47.005H12.826M12.826 47.005H16.7403V52.9795M12.826 47.005V65.1343M16.7403 52.9795H10.2852M16.7403 52.9795V59.0569M16.7403 59.0569V65.1343H10.2852M16.7403 59.0569H10.2852" stroke="#6A6A6A" stroke-width="0.80192"/>
<path d="M21.5293 50.1703C21.3413 50.4658 19.7565 52.937 20.0519 53.0713C20.2883 53.1788 22.3889 54.1189 23.4096 54.5756M21.5293 50.1703V52.6147M21.5293 50.1703L20.8847 52.3192L21.5293 52.6147M21.5293 55.7037C22.1024 57.5214 23.3344 61.3447 23.6782 62.0968M21.5293 55.7037C20.7235 58.3093 20.24 59.1689 18.1179 60.8611M21.5293 55.7037V52.6147M21.5293 52.6147C21.6798 52.6362 23.4544 53.3578 24.3229 53.716" stroke="#6A6A6A" stroke-width="0.80192"/>
<path d="M22.2814 47.8333C22.1398 47.8245 21.9695 47.7855 21.8412 47.8662C21.642 47.9914 21.5829 48.2759 21.574 48.4914C21.5653 48.703 21.6265 48.9983 21.8471 49.0899C22.1279 49.2064 22.4368 49.0786 22.6515 48.8899C22.9176 48.6558 22.935 48.3125 22.8186 47.9945C22.7032 47.6792 22.445 47.5696 22.165 47.7796C21.9441 47.9453 21.7825 48.3012 21.968 48.5496C22.0208 48.6204 22.1155 48.6296 22.0665 48.5317" stroke="#6A6A6A" stroke-width="1.33653" stroke-linecap="round"/>
<path d="M23.4097 54.9248C23.4337 54.9728 23.6303 55.4383 23.9009 56.0835M23.9009 56.0835L25.4243 56.1665M23.9009 56.0835C24.1252 56.6183 24.4003 57.2765 24.67 57.9229M25.4243 56.1665L26.7695 59.5615M25.4243 56.1665L27.1916 56.2628M26.7695 59.5615L28.3098 59.3652M26.7695 59.5615L26.0969 59.6472M28.3098 59.3652L27.1916 56.2628M28.3098 59.3652L29.6069 59.1999M27.1916 56.2628L28.7566 56.3481M29.6069 59.1999L30.904 59.0346L31.1312 57.2364M29.6069 59.1999L28.7566 56.3481M28.7566 56.3481L31.2264 56.4827L31.1312 57.2364M24.67 57.9229C24.9475 58.5879 25.2193 59.2404 25.4243 59.733L26.0969 59.6472M24.67 57.9229L31.1312 57.2364M26.0969 59.6472L25.2362 61.2372H30.6354" stroke="#6A6A6A" stroke-width="0.80192"/>
<path d="M25.9883 61.9087V61.9624" stroke="#6A6A6A" stroke-width="1.33653" stroke-linecap="round"/>
<path d="M29.8296 62.0162C29.8467 62.0355 29.8488 62.0471 29.8565 62.0699" stroke="#6A6A6A" stroke-width="1.33653" stroke-linecap="round"/>
<defs>
<clipPath id="clip0_48_9">
<rect width="14.1949" height="4.80831" fill="white" transform="translate(6.80615 3.02489)"/>
</clipPath>
<clipPath id="clip1_48_9">
<rect width="13.2612" height="5.00025" fill="white" transform="translate(6.80615 7.83321)"/>
</clipPath>
<clipPath id="clip2_48_9">
<rect width="15.1396" height="3.95822" fill="white" transform="translate(6.80615 12.8335)"/>
</clipPath>
<clipPath id="clip3_48_9">
<rect width="13.2612" height="5.00025" fill="white" transform="translate(6.80615 16.7917)"/>
</clipPath>
</defs>
</svg>
