<svg width="196" height="257" viewBox="0 0 196 257" fill="none" xmlns="http://www.w3.org/2000/svg">
<path d="M80.9421 77.0199V164.504H128.27C128.389 135.343 128.556 76.4462 128.27 74.1515C127.911 71.2832 121.816 62.6782 118.23 58.3757C115.362 54.9337 114.645 43.556 114.645 38.2974H95.6423C94.9252 42.5999 93.1325 52.639 91.6983 58.3757C90.2642 64.1124 83.93 73.1954 80.9421 77.0199Z" fill="#2A9D8F"/>
<path d="M95.6423 38.2974C94.9252 42.5999 93.1325 52.639 91.6983 58.3757C90.2642 64.1124 83.93 73.1954 80.9421 77.0199V164.504H128.27C128.389 135.343 128.556 76.4462 128.27 74.1515C127.911 71.2832 121.816 62.6782 118.23 58.3757C115.362 54.9337 114.645 43.556 114.645 38.2974M95.6423 38.2974H114.645M95.6423 38.2974C95.6423 38.2974 91.7861 38.2974 89.3153 38.2974M114.645 38.2974H120.703" stroke="black" stroke-width="10" stroke-linecap="round" stroke-linejoin="round"/>
<path d="M35.473 114.731C36.385 129.735 61.7475 144.658 74.3148 150.244C75.9091 149.845 77.9942 149.207 80.2827 148.344C86.7552 145.902 94.8544 141.65 98.0772 135.854C103.53 126.047 95.513 107.015 91.9298 98.0756C89.0633 90.9244 82.8875 90.7835 80.1579 91.607C79.7624 87.2965 77.9967 76.8997 74.0979 69.7965C70.1991 62.6932 62.4534 65.3121 59.0679 67.5095C55.4823 58.8691 45.6377 42.5784 34.9432 46.5385C24.2488 50.4986 30.4762 67.4948 34.9267 75.4979C33.8634 74.0546 30.4767 72.8088 25.4368 79.3721C20.3969 85.9354 33.365 100.548 40.479 107.035C38.7657 106.219 35.3659 106.615 35.473 114.731Z" fill="#E76F51"/>
<path d="M80.2827 148.344C86.7552 145.902 94.8544 141.65 98.0772 135.854C103.53 126.047 95.513 107.015 91.9298 98.0756C89.0633 90.9244 82.8875 90.7835 80.1579 91.607C79.7624 87.2965 77.9967 76.8997 74.0979 69.7965C70.1991 62.6932 62.4534 65.3121 59.0679 67.5095C55.4823 58.8691 45.6377 42.5784 34.9432 46.5385C24.2488 50.4986 30.4762 67.4948 34.9267 75.4979C33.8634 74.0546 30.4767 72.8088 25.4368 79.3721C20.3969 85.9354 33.365 100.548 40.479 107.035C38.7657 106.219 35.3659 106.615 35.473 114.731C36.385 129.735 61.7475 144.658 74.3148 150.244C75.9091 149.845 77.9942 149.207 80.2827 148.344ZM80.2827 148.344L72.9313 130.976M47.4334 70.7371L58.7851 97.5557M61.9464 105.024L58.7851 97.5557M61.9464 105.024L72.9313 130.976M61.9464 105.024L64.4415 91.607L66.9366 78.1899M58.7851 97.5557L40.5106 86.9709M72.9313 130.976L52.6584 116.321" stroke="black" stroke-width="10" stroke-linecap="round" stroke-linejoin="round"/>
<path d="M166.601 108.532C176.838 77.5573 193.386 13.6729 177.679 5.93275C170.221 2.25756 160.548 18.9698 151.288 42.0668C147.497 51.5246 143.774 62.053 140.302 72.6905C138.419 78.459 136.61 84.2596 134.902 89.939C132.403 98.2519 130.123 106.305 128.153 113.618C127.246 116.982 126.405 120.189 125.638 123.193L151.84 150.616L166.601 108.532Z" fill="#E9C46A"/>
<path d="M151.288 42.0668C160.548 18.9698 170.221 2.25756 177.679 5.93275C193.386 13.6729 176.838 77.5573 166.601 108.532L151.84 150.616L125.638 123.193C126.405 120.189 127.246 116.982 128.153 113.618M151.288 42.0668C151.886 40.5858 173.23 35.1619 168.746 45.6677C165.159 54.0723 148.289 67.1848 140.302 72.6905M151.288 42.0668C147.497 51.5246 143.774 62.053 140.302 72.6905M140.302 72.6905C138.419 78.459 136.61 84.2596 134.902 89.939M134.902 89.939C141.83 87.5327 154.521 84.8729 149.856 93.4838C145.192 102.095 133.444 110.494 128.153 113.618M134.902 89.939C132.403 98.2519 130.123 106.305 128.153 113.618" stroke="black" stroke-width="10"/>
<path d="M28.7603 107.388V251.296H173.446V107.388L154.443 118.454L136.516 104.628L118.589 118.454L100.662 104.628L82.7348 118.454L65.5248 104.628L47.3517 118.454L28.7603 107.388Z" fill="#E3D39C" stroke="black" stroke-width="10" stroke-linejoin="round"/>
</svg>
